<mxfile host="Electron" modified="2024-11-20T08:57:08.528Z" agent="Mozilla/5.0 (Macintosh; Intel Mac OS X 10_15_7) AppleWebKit/537.36 (KHTML, like Gecko) draw.io/21.2.1 Chrome/112.0.5615.87 Electron/24.1.2 Safari/537.36" etag="5wArjXwvn-x7J9skPCSQ" version="21.2.1" type="device">
  <diagram name="Page-1" id="HSLW9Y-XUCRo14-Nol-e">
    <mxGraphModel dx="817" dy="670" grid="0" gridSize="10" guides="1" tooltips="1" connect="1" arrows="1" fold="1" page="1" pageScale="1" pageWidth="827" pageHeight="1169" background="#0d1526" math="0" shadow="0">
      <root>
        <mxCell id="0" />
        <mxCell id="1" parent="0" />
        <mxCell id="Rja2eluypPIlOhGMYpN0-8" style="edgeStyle=orthogonalEdgeStyle;rounded=0;orthogonalLoop=1;jettySize=auto;html=1;shadow=0;strokeColor=#FFFFFF;" edge="1" parent="1" source="Rja2eluypPIlOhGMYpN0-1" target="Rja2eluypPIlOhGMYpN0-2">
          <mxGeometry relative="1" as="geometry" />
        </mxCell>
        <mxCell id="Rja2eluypPIlOhGMYpN0-1" value="Lambda" style="sketch=0;outlineConnect=0;fontColor=#232F3E;gradientColor=none;strokeColor=#ffffff;fillColor=#232F3E;dashed=0;verticalLabelPosition=middle;verticalAlign=bottom;align=center;html=1;whiteSpace=wrap;fontSize=10;fontStyle=1;spacing=3;shape=mxgraph.aws4.productIcon;prIcon=mxgraph.aws4.lambda;" vertex="1" parent="1">
          <mxGeometry x="307" y="285.5" width="80" height="100" as="geometry" />
        </mxCell>
        <mxCell id="Rja2eluypPIlOhGMYpN0-9" style="edgeStyle=orthogonalEdgeStyle;rounded=0;orthogonalLoop=1;jettySize=auto;html=1;strokeColor=#FFFFFF;" edge="1" parent="1" source="Rja2eluypPIlOhGMYpN0-2" target="Rja2eluypPIlOhGMYpN0-7">
          <mxGeometry relative="1" as="geometry" />
        </mxCell>
        <mxCell id="Rja2eluypPIlOhGMYpN0-2" value="Message Queue" style="sketch=0;outlineConnect=0;fontColor=#232F3E;gradientColor=none;strokeColor=#ffffff;fillColor=#232F3E;dashed=0;verticalLabelPosition=middle;verticalAlign=bottom;align=center;html=1;whiteSpace=wrap;fontSize=10;fontStyle=1;spacing=3;shape=mxgraph.aws4.productIcon;prIcon=mxgraph.aws4.sqs;" vertex="1" parent="1">
          <mxGeometry x="173" y="281" width="80" height="109" as="geometry" />
        </mxCell>
        <mxCell id="Rja2eluypPIlOhGMYpN0-22" style="edgeStyle=orthogonalEdgeStyle;rounded=0;orthogonalLoop=1;jettySize=auto;html=1;" edge="1" parent="1" source="Rja2eluypPIlOhGMYpN0-3" target="Rja2eluypPIlOhGMYpN0-21">
          <mxGeometry relative="1" as="geometry" />
        </mxCell>
        <mxCell id="Rja2eluypPIlOhGMYpN0-3" value="Amazon SNS" style="sketch=0;outlineConnect=0;fontColor=#232F3E;gradientColor=none;strokeColor=#ffffff;fillColor=#232F3E;dashed=0;verticalLabelPosition=middle;verticalAlign=bottom;align=center;html=1;whiteSpace=wrap;fontSize=10;fontStyle=1;spacing=3;shape=mxgraph.aws4.productIcon;prIcon=mxgraph.aws4.sns;" vertex="1" parent="1">
          <mxGeometry x="436" y="336" width="80" height="100" as="geometry" />
        </mxCell>
        <mxCell id="Rja2eluypPIlOhGMYpN0-13" style="edgeStyle=orthogonalEdgeStyle;rounded=0;orthogonalLoop=1;jettySize=auto;html=1;" edge="1" parent="1" source="Rja2eluypPIlOhGMYpN0-4" target="Rja2eluypPIlOhGMYpN0-7">
          <mxGeometry relative="1" as="geometry" />
        </mxCell>
        <mxCell id="Rja2eluypPIlOhGMYpN0-19" style="edgeStyle=orthogonalEdgeStyle;rounded=0;orthogonalLoop=1;jettySize=auto;html=1;" edge="1" parent="1" source="Rja2eluypPIlOhGMYpN0-4" target="Rja2eluypPIlOhGMYpN0-6">
          <mxGeometry relative="1" as="geometry" />
        </mxCell>
        <mxCell id="Rja2eluypPIlOhGMYpN0-4" value="Amazon CloudWatch" style="sketch=0;outlineConnect=0;fontColor=#232F3E;gradientColor=none;strokeColor=#ffffff;fillColor=#232F3E;dashed=0;verticalLabelPosition=middle;verticalAlign=bottom;align=center;html=1;whiteSpace=wrap;fontSize=10;fontStyle=1;spacing=3;shape=mxgraph.aws4.productIcon;prIcon=mxgraph.aws4.cloudwatch;" vertex="1" parent="1">
          <mxGeometry x="307" y="448.5" width="80" height="110" as="geometry" />
        </mxCell>
        <mxCell id="Rja2eluypPIlOhGMYpN0-18" style="edgeStyle=orthogonalEdgeStyle;rounded=0;orthogonalLoop=1;jettySize=auto;html=1;" edge="1" parent="1" source="Rja2eluypPIlOhGMYpN0-6" target="Rja2eluypPIlOhGMYpN0-3">
          <mxGeometry relative="1" as="geometry" />
        </mxCell>
        <mxCell id="Rja2eluypPIlOhGMYpN0-6" value="Message in DLQ" style="verticalLabelPosition=bottom;html=1;verticalAlign=top;align=center;strokeColor=none;fillColor=#00BEF2;shape=mxgraph.azure.azure_alert;" vertex="1" parent="1">
          <mxGeometry x="451" y="482.25" width="50" height="42.5" as="geometry" />
        </mxCell>
        <mxCell id="Rja2eluypPIlOhGMYpN0-7" value="Dead Letter Queue" style="sketch=0;outlineConnect=0;fontColor=#232F3E;gradientColor=none;strokeColor=#ffffff;fillColor=#232F3E;dashed=0;verticalLabelPosition=middle;verticalAlign=bottom;align=center;html=1;whiteSpace=wrap;fontSize=10;fontStyle=1;spacing=3;shape=mxgraph.aws4.productIcon;prIcon=mxgraph.aws4.sqs;" vertex="1" parent="1">
          <mxGeometry x="173" y="447" width="80" height="113" as="geometry" />
        </mxCell>
        <mxCell id="Rja2eluypPIlOhGMYpN0-21" value="Amazon Simple Email Service" style="sketch=0;outlineConnect=0;fontColor=#232F3E;gradientColor=none;strokeColor=#ffffff;fillColor=#232F3E;dashed=0;verticalLabelPosition=middle;verticalAlign=bottom;align=center;html=1;whiteSpace=wrap;fontSize=10;fontStyle=1;spacing=3;shape=mxgraph.aws4.productIcon;prIcon=mxgraph.aws4.simple_email_service;" vertex="1" parent="1">
          <mxGeometry x="565" y="331" width="80" height="110" as="geometry" />
        </mxCell>
        <mxCell id="Rja2eluypPIlOhGMYpN0-27" value="" style="endArrow=classic;html=1;rounded=0;shape=flexArrow;strokeColor=#66B2FF;" edge="1" parent="1">
          <mxGeometry relative="1" as="geometry">
            <mxPoint x="108" y="336" as="sourcePoint" />
            <mxPoint x="173" y="336" as="targetPoint" />
          </mxGeometry>
        </mxCell>
      </root>
    </mxGraphModel>
  </diagram>
</mxfile>
